<?xml version="1.0" standalone="no"?>
<!DOCTYPE svg PUBLIC "-//W3C//DTD SVG 1.1//EN" "http://www.w3.org/Graphics/SVG/1.1/DTD/svg11.dtd">
<svg width="100%" height="100%" version="1.1" xmlns="http://www.w3.org/2000/svg">

<!-- 测试部分代码 start -->
<path style=" -webkit-transform: scale(20); " fill="#B8B8B8" d="M10.461,1.574L10.461,1.574c0.114,0,0.229,0.001,0.343,0.004c5.147,0.108,8.429,2.362,8.361,5.74
           c-0.07,3.477-3.481,5.904-8.298,5.904c-0.102,0-0.204-0.001-0.309-0.004c-0.598-0.011-1.208-0.068-1.816-0.171l-0.459-0.076
           l-0.291,0.361c-0.898,1.116-2.025,1.719-3.353,1.793c0.533-0.498,0.821-1.031,0.857-1.594c0.039-0.602-0.239-1.164-0.722-1.466
           C3.368,11.177,1.701,9.61,1.75,7.191C1.816,3.884,5.399,1.574,10.461,1.574 M10.461,0.78c-5.267,0-9.426,2.471-9.504,6.396
           c-0.047,2.273,1.21,4.181,3.395,5.561c0.496,0.311,0.908,1.554-1.939,2.862c0,0,0.811,0.328,1.942,0.328
           c1.251,0,2.892-0.402,4.256-2.097c0.623,0.104,1.27,0.169,1.933,0.182c0.109,0.002,0.216,0.004,0.324,0.004
           c5.265,0,9.011-2.748,9.091-6.683c0.082-4.015-3.703-6.435-9.138-6.55C10.701,0.781,10.581,0.78,10.461,0.78"></path>
        <polygon style=" -webkit-transform: scale(20); " fill="#B8B8B8" points="6.817,10.895 6.817,4.453 8.118,4.453 8.118,6.989 10.667,6.989 10.667,4.453 11.966,4.453 
           11.966,10.895 10.667,10.895 10.667,8.079 8.118,8.079 8.118,10.895 "></polygon>
        <path style=" -webkit-transform: scale(20); " fill="#B8B8B8" d="M13.302,4.453h1.235v1.143h-1.235V4.453z M13.302,6.228h1.235v4.667h-1.235V6.228z"></path>
<!-- 测试部分代码 end -->

</svg>